<svg id="e3NdyvB5Tq81" xmlns="http://www.w3.org/2000/svg" xmlns:xlink="http://www.w3.org/1999/xlink" viewBox="0 0 800 600" shape-rendering="geometricPrecision" text-rendering="geometricPrecision"><defs><linearGradient id="e3NdyvB5Tq83-fill" x1="410.635" y1="-1.336" x2="410.635" y2="600.908" spreadMethod="pad" gradientUnits="userSpaceOnUse" gradientTransform="translate(0 0)"><stop id="e3NdyvB5Tq83-fill-0" offset="0%" stop-color="#70b"/><stop id="e3NdyvB5Tq83-fill-1" offset="100%" stop-color="#00008b"/><stop id="e3NdyvB5Tq83-fill-2" offset="100%" stop-color="#000"/></linearGradient><linearGradient id="e3NdyvB5Tq87-fill" x1="641.158" y1="489.084" x2="644.282" y2="489.084" spreadMethod="pad" gradientUnits="userSpaceOnUse" gradientTransform="translate(0 0)"><stop id="e3NdyvB5Tq87-fill-0" offset="4.1%" stop-color="#100060"/><stop id="e3NdyvB5Tq87-fill-1" offset="100%" stop-color="#090e96"/></linearGradient><linearGradient id="e3NdyvB5Tq817-fill" x1="407.438" y1="318.561" x2="538.178" y2="318.561" spreadMethod="pad" gradientUnits="userSpaceOnUse" gradientTransform="translate(0 0)"><stop id="e3NdyvB5Tq817-fill-0" offset="0%" stop-color="#a1baff"/><stop id="e3NdyvB5Tq817-fill-1" offset="43.3%" stop-color="#fff"/></linearGradient><linearGradient id="e3NdyvB5Tq819-fill" x1="487.791" y1="359.186" x2="519.543" y2="359.186" spreadMethod="pad" gradientUnits="userSpaceOnUse" gradientTransform="translate(0 0)"><stop id="e3NdyvB5Tq819-fill-0" offset="0%" stop-color="#a1baff"/><stop id="e3NdyvB5Tq819-fill-1" offset="43.3%" stop-color="#fff"/></linearGradient><linearGradient id="e3NdyvB5Tq825-fill" x1="242.597" y1="314.881" x2="394.824" y2="314.881" spreadMethod="pad" gradientUnits="userSpaceOnUse" gradientTransform="translate(0 0)"><stop id="e3NdyvB5Tq825-fill-0" offset="0%" stop-color="#311341"/><stop id="e3NdyvB5Tq825-fill-1" offset="23%" stop-color="#3113c2"/><stop id="e3NdyvB5Tq825-fill-2" offset="34.8%" stop-color="#2f18c5"/><stop id="e3NdyvB5Tq825-fill-3" offset="49.3%" stop-color="#2927cc"/><stop id="e3NdyvB5Tq825-fill-4" offset="65.2%" stop-color="#1f40d8"/><stop id="e3NdyvB5Tq825-fill-5" offset="82.2%" stop-color="#1263e9"/><stop id="e3NdyvB5Tq825-fill-6" offset="99.8%" stop-color="#008fff"/><stop id="e3NdyvB5Tq825-fill-7" offset="100%" stop-color="#0090ff"/></linearGradient><linearGradient id="e3NdyvB5Tq826-fill" x1="260.194" y1="196.16" x2="287.175" y2="267.796" spreadMethod="pad" gradientUnits="userSpaceOnUse" gradientTransform="translate(0 0)"><stop id="e3NdyvB5Tq826-fill-0" offset="0%" stop-color="#a1baff"/><stop id="e3NdyvB5Tq826-fill-1" offset="43.3%" stop-color="#fff"/></linearGradient><linearGradient id="e3NdyvB5Tq829-fill" x1="340.829" y1="474.88" x2="345.481" y2="581.868" spreadMethod="pad" gradientUnits="userSpaceOnUse" gradientTransform="translate(0 0)"><stop id="e3NdyvB5Tq829-fill-0" offset="4.1%" stop-color="#100022"/><stop id="e3NdyvB5Tq829-fill-1" offset="100%" stop-color="#090e96"/></linearGradient><linearGradient id="e3NdyvB5Tq831-fill" x1="334.145" y1="446.239" x2="458.197" y2="587.658" spreadMethod="pad" gradientUnits="userSpaceOnUse" gradientTransform="translate(0 0)"><stop id="e3NdyvB5Tq831-fill-0" offset="4.1%" stop-color="#10003b"/><stop id="e3NdyvB5Tq831-fill-1" offset="100%" stop-color="#090e96"/></linearGradient><linearGradient id="e3NdyvB5Tq832-fill" x1="211.814" y1="363.16" x2="337.41" y2="363.16" spreadMethod="pad" gradientUnits="userSpaceOnUse" gradientTransform="translate(0 0)"><stop id="e3NdyvB5Tq832-fill-0" offset="0%" stop-color="#7633ff"/><stop id="e3NdyvB5Tq832-fill-1" offset="15.9%" stop-color="#7137ff"/><stop id="e3NdyvB5Tq832-fill-2" offset="35.3%" stop-color="#6243ff"/><stop id="e3NdyvB5Tq832-fill-3" offset="56.8%" stop-color="#4957ff"/><stop id="e3NdyvB5Tq832-fill-4" offset="79.4%" stop-color="#2672ff"/><stop id="e3NdyvB5Tq832-fill-5" offset="100%" stop-color="#0090ff"/></linearGradient><linearGradient id="e3NdyvB5Tq835-fill" x1="299.975" y1="304.053" x2="445.298" y2="355.219" spreadMethod="pad" gradientUnits="userSpaceOnUse" gradientTransform="translate(0 0)"><stop id="e3NdyvB5Tq835-fill-0" offset="0%" stop-color="#7633ff"/><stop id="e3NdyvB5Tq835-fill-1" offset="9.7%" stop-color="#7137ff"/><stop id="e3NdyvB5Tq835-fill-2" offset="21.6%" stop-color="#6243ff"/><stop id="e3NdyvB5Tq835-fill-3" offset="34.6%" stop-color="#4957ff"/><stop id="e3NdyvB5Tq835-fill-4" offset="48.4%" stop-color="#2672ff"/><stop id="e3NdyvB5Tq835-fill-5" offset="61%" stop-color="#0090ff"/></linearGradient><linearGradient id="e3NdyvB5Tq846-fill" x1="112.784" y1="214.635" x2="627.311" y2="314.649" spreadMethod="pad" gradientUnits="userSpaceOnUse" gradientTransform="translate(0 0)"><stop id="e3NdyvB5Tq846-fill-0" offset="0.4%" stop-color="rgba(118,51,255,0)"/><stop id="e3NdyvB5Tq846-fill-1" offset="9.2%" stop-color="rgba(112,81,255,0.088)"/><stop id="e3NdyvB5Tq846-fill-2" offset="26.3%" stop-color="rgba(102,133,255,0.26)"/><stop id="e3NdyvB5Tq846-fill-3" offset="43%" stop-color="rgba(94,177,255,0.428)"/><stop id="e3NdyvB5Tq846-fill-4" offset="59.1%" stop-color="rgba(87,211,255,0.589)"/><stop id="e3NdyvB5Tq846-fill-5" offset="74.3%" stop-color="rgba(83,235,255,0.742)"/><stop id="e3NdyvB5Tq846-fill-6" offset="88.3%" stop-color="rgba(80,250,255,0.883)"/><stop id="e3NdyvB5Tq846-fill-7" offset="100%" stop-color="#4fffff"/></linearGradient><linearGradient id="e3NdyvB5Tq847-fill" x1="393.064" y1="120.397" x2="519.623" y2="120.397" spreadMethod="pad" gradientUnits="userSpaceOnUse" gradientTransform="translate(0 0)"><stop id="e3NdyvB5Tq847-fill-0" offset="0%" stop-color="#a1baff"/><stop id="e3NdyvB5Tq847-fill-1" offset="8.9%" stop-color="#acc2ff"/><stop id="e3NdyvB5Tq847-fill-2" offset="49.9%" stop-color="#d9e3ff"/><stop id="e3NdyvB5Tq847-fill-3" offset="81.6%" stop-color="#f5f7ff"/><stop id="e3NdyvB5Tq847-fill-4" offset="100%" stop-color="#fff"/></linearGradient></defs><path id="e3NdyvB5Tq82" d="M690.59,464.13h80.29c4.36-2.25,7.35-6.82,7.35-12.09c0-6.82-5.01-12.47-11.53-13.44.01-.22.02-.44.02-.67c0-7.98-6.6-14.45-14.74-14.45-.85,0-1.68.07-2.5.21-3.51-6.09-10.36-10.22-18.23-10.22-9.17,0-16.95,5.61-19.68,13.39-.86-.17-1.75-.27-2.65-.27-7.82,0-14.16,6.73-14.16,15.03c0,.93.08,1.85.23,2.73-5.92.38-10.6,4.91-10.6,10.45c0,4.07,2.52,7.59,6.2,9.33Z" opacity="0" fill="#fff"/><path id="e3NdyvB5Tq83" d="M745.2,339.56C745.2,154.79,595.41,5,410.63,5C225.86,5,76.07,154.79,76.07,339.56c0,105.4,48.76,199.4,124.93,260.72h419.27C696.44,538.96,745.2,444.96,745.2,339.56Z" transform="matrix(.01774 0 0-.057369 396.150337 309.986879)" fill="url(#e3NdyvB5Tq83-fill)"/><path id="e3NdyvB5Tq84" d="M503.67,209.55c0,2.06-.65,3.72-1.45,3.72h-82.25c-.8,0-1.45-1.67-1.45-3.72c0-2.06.65-3.72,1.45-3.72h82.25c.8,0,1.45,1.67,1.45,3.72Z" opacity="0" fill="#fff"/><path id="e3NdyvB5Tq85" d="M667.1,175.99c0,2.06-1.9,3.72-4.24,3.72h-240.1c-2.34,0-4.24-1.67-4.24-3.72c0-2.06,1.9-3.72,4.24-3.72h240.1c2.34,0,4.24,1.67,4.24,3.72Zm-83.99,15.82c0,2.06-1.26,3.72-2.81,3.72h-158.98c-1.55,0-2.81-1.67-2.81-3.72c0-2.06,1.26-3.72,2.81-3.72h158.98c1.55,0,2.81,1.66,2.81,3.72Z" opacity="0" fill="#fff"/><path d="M300.72,582.47v-.86h55.07Zm-17.19,0l-47.38-.86h47.38Z" clip-rule="evenodd" fill="#fff" fill-rule="evenodd"/><path d="M643.13,507.56c0,0-2.16-13.67-1.95-16.61s1.02-18.47,1.02-18.47l2.09-1.86c0,0-2.06,17.3-1.8,22.41.25,5.1.64,14.53.64,14.53Z" fill="url(#e3NdyvB5Tq87-fill)"/><path id="e3NdyvB5Tq88" d="M554.68,371.79h11.58v228.24h-11.58Z" transform="translate(294 0)" clip-rule="evenodd" fill="#1289cc" fill-rule="evenodd"/><path id="e3NdyvB5Tq89" d="M548.99,371.79h11.58v228.24h-11.58Z" transform="translate(294 0)" clip-rule="evenodd" fill-rule="evenodd"/><path d="M592.05,371.79h11.53v228.24h-11.53Z" clip-rule="evenodd" fill="#1289cc" fill-rule="evenodd"/><path id="e3NdyvB5Tq811" d="M586.36,371.79h11.53v228.24h-11.53Z" transform="translate(220 0)" clip-rule="evenodd" fill-rule="evenodd"/><path d="M309.53,371.79h11.58v228.24h-11.58Z" clip-rule="evenodd" fill="#125cae" fill-rule="evenodd"/><path d="M303.85,371.79h11.58v228.24h-11.58Z" clip-rule="evenodd" fill-rule="evenodd"/><path id="e3NdyvB5Tq814" d="M346.9,371.79h11.53v228.24h-11.53Z" transform="translate(463 0)" clip-rule="evenodd" fill="#1289cc" fill-rule="evenodd"/><path id="e3NdyvB5Tq815" d="M341.22,371.79h11.53v228.24h-11.53Z" transform="translate(474 0)" clip-rule="evenodd" fill-rule="evenodd"/><path id="e3NdyvB5Tq816" d="M261.49,362.32h364.45v22.61h-364.45Z" transform="translate(-22.36-380.37)" clip-rule="evenodd" fill-rule="evenodd"/><path d="M424.23,280.97l112.16-7.9l1.79,3.93-14.71,80.25h-5.17l-110.86,6.8Z" clip-rule="evenodd" fill="url(#e3NdyvB5Tq817-fill)" fill-rule="evenodd"/><path id="e3NdyvB5Tq818" d="M420.31,273.07h115.68L519.2,356.2h-115.69Z" clip-rule="evenodd" fill-rule="evenodd"/><path d="M487.79,356.05h31.75v6.26h-31.75Z" clip-rule="evenodd" fill="url(#e3NdyvB5Tq819-fill)" fill-rule="evenodd"/><path d="M380.85,356.05h106.94v6.26h-106.94Z" clip-rule="evenodd" fill="#431ca3" fill-rule="evenodd"/><path d="M424.23,277.89l-14.86,73.44h105.85l14.86-73.44Z" clip-rule="evenodd" fill="#3f2759" fill-rule="evenodd"/><g id="e3NdyvB5Tq822" transform="translate(.000001 0)"><path d="M443.71,362.32c3.58.44,11.13-.7,16.5-4.17c5.32-3.48,9.54-6.78,9.54-6.78s11.59,1.51,12.33-1.14c.32-3.54-15.02-7.73-17.15-7.98-2.19-.25-20.17,2.28-22.01,4.12-1.84,1.83.79,15.95.79,15.95Zm-59.93-10.09c3.58.45,11.13-.69,16.45-4.17s10.39-8.55,10.39-8.55s11.58,1.09,11.33,0c-.3-1.04-14.81-7.11-17-7.35-2.14-.25-20.17,2.29-22.01,4.13-1.84,1.82.84,15.94.84,15.94Z" transform="translate(-489 0)" clip-rule="evenodd" fill="#fff" fill-rule="evenodd"/><path d="M404.8,338.22c1.14,1.44,8.4,6.86,7.01,8.94-1.39,2.14-4.72,3.03-8.35.4s-5.91-5.72-4.92-6.76c1-1.04,6.26-2.58,6.26-2.58Z" transform="translate(-489 0)" clip-rule="evenodd" fill="#fff" fill-rule="evenodd"/><path d="M250.31,266.61c-11.03,4.47-8.4,25.74-3.38,41c4.97,15.26,56.5,51.28,71.76,55.26c15.26,3.93,74.44-14.56,74.44-14.56c4.02-8.2.55-16.9-6.76-15.01c0,0-57.69,9.04-66.34-.94-6.96-8.01-58.04-70.47-69.72-65.75Z" transform="translate(-489 0)" clip-rule="evenodd" fill="url(#e3NdyvB5Tq825-fill)" fill-rule="evenodd"/><path d="M297.02,238.98c-18.04,36.32-55.11,24.2-63.85-10.53-8.75-34.69-11.03-64.65,19.38-69.92c33.04-5.72,62.56,44.12,44.47,80.45Z" transform="translate(-489 0)" clip-rule="evenodd" fill="url(#e3NdyvB5Tq826-fill)" fill-rule="evenodd"/><path d="M240.57,239.78c3.43,10.78,2.38,39.7,2.38,39.7s48.8,14.21,47.31,7.65c-5.96-26.59-8.99-49.84-14.46-54.71-4.52-3.98-15.65,9.39-35.23,7.36Z" transform="translate(-489 0)" clip-rule="evenodd" fill="#fff" fill-rule="evenodd"/><path d="M340,567.15c0,0,10.48,12.67,24.05,18.34s19.68,8.1,17.49,11.58-19.58,1.84-32.7,2.29c-13.07.45-21.91,1.44-22.36-2.73-.45-4.12,1.64-27.03,1.64-27.03L340,567.15Z" transform="translate(-489 0)" clip-rule="evenodd" fill-rule="evenodd"/><path d="M320.92,468.56c.5,14.21,5.32,120.78,5.32,120.78c3.37,3.89,25.65-4.1,27.21-9.51c0,0,9.56-118.63,5.83-119.18-3.67-.49-38.36,7.91-38.36,7.91Z" transform="translate(-489 0)" clip-rule="evenodd" fill="url(#e3NdyvB5Tq829-fill)" fill-rule="evenodd"/><path d="M454.5,567.65c0,0,10.49,12.67,24,18.39c13.57,5.67,19.68,8.05,17.49,11.58-2.19,3.48-19.58,1.79-32.65,2.24-13.12.45-21.96,1.44-22.41-2.68-.45-4.17,1.64-27.08,1.64-27.08l11.93-2.45Z" transform="translate(-489 0)" clip-rule="evenodd" fill-rule="evenodd"/><path d="M248.62,425.67c-1.59,11.08-18.44,28.43,2.09,45.77c20.52,17.34,152.66,2.68,154.35,5.02c1.69,2.29,34.39,114.72,34.39,114.72s28.29-.89,26.81-12.47c-10.92-30.16-9.12-126.45-31.23-136.99-22.08-10.53-186.41-16.05-186.41-16.05Z" transform="translate(-493.854089-19.335)" clip-rule="evenodd" fill="url(#e3NdyvB5Tq831-fill)" fill-rule="evenodd"/><path d="M302.78,269.49c-18.93-5.02-75.51-9.07-83.09,7.11-17.6,37.57-3.59,181.93,20.91,184.31c15.75,1.54,93.93-.85,96.56-29.22c3.44-37.32-31.1-91.29-34.38-162.2Z" transform="translate(-498.165719 1.545394)" clip-rule="evenodd" fill="url(#e3NdyvB5Tq832-fill)" fill-rule="evenodd"/><path d="M218.18,387.29h19.18v95.21h-19.18Z" transform="translate(-489 0)" clip-rule="evenodd" fill="#fff" fill-rule="evenodd"/><path d="M214.1,386.52h19.18v95.21h-19.18Z" transform="translate(-489 0)" clip-rule="evenodd" fill-rule="evenodd"/><path d="M302.78,269.49c-11.03,4.47-8.45,25.79-3.43,41.05c5.02,15.21,56.55,51.23,71.81,55.21c15.26,3.93,76.28-3.77,76.28-3.77c3.98-8.2.55-16.9-6.81-15.01c0,0-59.53-1.74-68.18-11.73-6.9-8.01-58.04-70.47-69.67-65.75Z" transform="translate(-489 0)" clip-rule="evenodd" fill="url(#e3NdyvB5Tq835-fill)" fill-rule="evenodd"/><path d="M283.6,193.16c-3.53-4.47,6.11,14.21,3.18,22.06.05-8.4-20.32-18.54-12.47,4.27.95,2.78,2.13,14.67,2.13,14.67-.2,4.9-25.26,19.7-33.53,14-7.5-4.37-19.38-21.96-26.98-41.69-7.65-19.73,5.76-29.37,5.76-29.37s-1.84-5.02,4.22-14.46c4.72-7.45,75.09-22.21,71.31,10.28-.8,6.72-7.85,12.54-13.62,20.24Z" transform="translate(-489 0)" clip-rule="evenodd" fill-rule="evenodd"/><path d="M200.88,309.7h72.99c5.28,0,9.64,5.86,9.64,13.02v54.46c0,7.16-4.36,13.02-9.64,13.02h-72.99c-5.32,0-9.67-5.86-9.67-13.02v-54.46c0-7.16,4.35-13.02,9.67-13.02Z" transform="translate(-489 0)" clip-rule="evenodd" fill="#fff" fill-rule="evenodd"/><path d="M193.71,309.86h72.99c5.28,0,9.64,5.86,9.64,13.02v54.46c0,7.16-4.36,13.02-9.64,13.02h-72.99c-5.32,0-9.67-5.86-9.67-13.02v-54.46c-.01-7.16,4.35-13.02,9.67-13.02Zm89.82,176.79h17.19v97.05h-17.19Z" transform="translate(-489 0)" clip-rule="evenodd" fill-rule="evenodd"/><path d="M230.8,581.61h124.88v6.81h-124.88Z" transform="translate(-489 0)" clip-rule="evenodd" fill-rule="evenodd"/><path d="M353.05,599.25c5.07,0,9.14-4.08,9.14-9.09c0-5.07-4.07-9.14-9.14-9.14-5.02,0-9.09,4.07-9.09,9.14-.01,5.02,4.07,9.09,9.09,9.09Zm-62.03-.2c5.07,0,9.14-4.08,9.14-9.09c0-5.07-4.08-9.14-9.14-9.14-5.02,0-9.09,4.07-9.09,9.14-.01,5.01,4.07,9.09,9.09,9.09Zm-59.82.2c5.02,0,9.14-4.08,9.14-9.09c0-5.07-4.12-9.14-9.14-9.14s-9.14,4.07-9.14,9.14c0,5.02,4.12,9.09,9.14,9.09ZM211.5,471.44h161.2c6.11,0,11.08,4.97,11.08,11.03c0,6.11-4.97,11.08-11.08,11.08h-161.2c-6.06,0-11.03-4.97-11.03-11.08c0-6.06,4.97-11.03,11.03-11.03Z" transform="translate(-489 0)" clip-rule="evenodd" fill-rule="evenodd"/><path d="M238.99,266.69c.25-3.18,2.5-12.13,2.5-12.13s36.57-2.49,45.27,1.59c1.36.64,9.81,13.09,9.81,13.09-23.06-4.18-42.79-4.38-57.58-2.55Z" transform="translate(-489 0)" clip-rule="evenodd" fill="#bcd8fa" fill-rule="evenodd"/></g><path d="M424.23,277.89h105.85l-.67,3.29-105.88.2Zm90.45,11.44c0,.5-.4.9-.9.9h-83.69c-.5,0-.9-.4-.9-.9s.4-.9.9-.9h83.69c.5,0,.9.4.9.9Zm-16.44,5.11c0,.5-.33.9-.74.9h-68.61c-.41,0-.74-.4-.74-.9s.33-.9.74-.9h68.61c.41,0,.74.41.74.9Zm-1.02,6.32c0,.5-.33.9-.74.9h-68.61c-.41,0-.74-.4-.74-.9s.33-.9.74-.9h68.61c.41,0,.74.4.74.9Zm14.05,5.53c0,.5-.4.9-.9.9h-83.78c-.5,0-.9-.4-.9-.9s.4-.9.9-.9h83.78c.5,0,.9.41.9.9Zm-3.1,13.17c0,.5-.4.9-.9.9h-83.78c-.5,0-.9-.4-.9-.9s.4-.9.9-.9h83.78c.49,0,.9.4.9.9Zm-30.33-6.92c0,.5-.25.9-.56.9h-52.15c-.31,0-.56-.4-.56-.9s.25-.9.56-.9h52.15c.31,0,.56.4.56.9ZM460.41,325.2c0,.5-.18.9-.4.9h-37.65c-.22,0-.4-.4-.4-.9s.18-.9.4-.9h37.64c.23,0,.41.4.41.9Zm28.74,6.94c0,.5-.32.9-.72.9h-67.4c-.4,0-.72-.4-.72-.9s.33-.9.72-.9h67.4c.39,0,.72.4.72.9Z" clip-rule="evenodd" fill="#1e8191" fill-rule="evenodd"/><path id="e3NdyvB5Tq843" d="M388.94,108.43c0,.73-.59,1.32-1.32,1.32s-1.32-.59-1.32-1.32.59-1.32,1.32-1.32s1.32.59,1.32,1.32Zm94.7,81.85c0,.73-.59,1.32-1.32,1.32s-1.33-.59-1.33-1.32.59-1.32,1.33-1.32s1.32.58,1.32,1.32ZM345.28,119.07c0,.73-.59,1.32-1.32,1.32s-1.32-.59-1.32-1.32.59-1.33,1.32-1.33c.73.01,1.32.6,1.32,1.33Zm-106.6-1.32c0,.73-.59,1.32-1.32,1.32s-1.32-.59-1.32-1.32.59-1.32,1.32-1.32c.73-.01,1.32.59,1.32,1.32ZM614.04,275.26c0,.73-.59,1.32-1.32,1.32s-1.33-.59-1.33-1.32.59-1.32,1.33-1.32s1.32.59,1.32,1.32Zm4.35-88.25l1.41,2.86l3.15.45-2.28,2.23.54,3.14-2.82-1.48-2.82,1.48.53-3.14-2.28-2.23l3.16-.45ZM291.7,70.98l1.76,3.57l3.94.57-2.85,2.78.67,3.93-3.52-1.86-3.53,1.86.67-3.93-2.85-2.78l3.94-.57ZM686.65,245.8l1.77,3.57l3.94.57-2.85,2.78.67,3.93-3.53-1.86-3.52,1.86.67-3.93-2.85-2.78l3.94-.57Z" transform="translate(-25.26 2.02)" opacity="0" fill="#fff"/><circle r="4.67" transform="translate(166.58 235.19)" fill="#fff"/><path id="e3NdyvB5Tq845" d="M520.94,136.02c18.1,18.18,47.5,18.26,65.69.17c18.18-18.09,18.26-47.5.17-65.68s-47.5-18.26-65.68-.17c-18.19,18.09-18.27,47.5-.18,65.68Z" transform="matrix(-.092593 0 0 0.046693 605.155163 98.44325)" fill="#fff"/><path id="e3NdyvB5Tq846" d="M83.42,354.06l325.95-2.73l7.22.27l98.63-.27l14.86-73.44L133.49,73.52" transform="translate(1.170001-.52)" opacity="0" fill="url(#e3NdyvB5Tq846-fill)"/><path id="e3NdyvB5Tq847" d="M499.63,115.95c-3.73,0-7.22,1.02-10.2,2.8-.71-10.4-9.37-18.61-19.94-18.61-2.58,0-5.04.49-7.3,1.38-2.88-9.64-11.81-16.67-22.39-16.67-12.9,0-23.37,10.46-23.37,23.37c0,.33.01.66.03.98h-.03c-12.9,0-23.37,10.46-23.37,23.37c0,12.9,10.46,23.37,23.37,23.37.81,0,1.6-.04,2.39-.12h78.63c.72.08,1.44.12,2.18.12c11.04,0,19.99-8.95,19.99-19.99c0-11.05-8.95-20-19.99-20Z" opacity="0" fill="url(#e3NdyvB5Tq847-fill)"/><script><![CDATA[!function(t,n){"object"==typeof exports&&"undefined"!=typeof module?module.exports=n():"function"==typeof define&&define.amd?define(n):((t="undefined"!=typeof globalThis?globalThis:t||self).__SVGATOR_PLAYER__=t.__SVGATOR_PLAYER__||{},t.__SVGATOR_PLAYER__["5c7f360c"]=n())}(this,(function(){"use strict";function t(t,n){var e=Object.keys(t);if(Object.getOwnPropertySymbols){var r=Object.getOwnPropertySymbols(t);n&&(r=r.filter((function(n){return Object.getOwnPropertyDescriptor(t,n).enumerable}))),e.push.apply(e,r)}return e}function n(n){for(var e=1;e<arguments.length;e++){var r=null!=arguments[e]?arguments[e]:{};e%2?t(Object(r),!0).forEach((function(t){o(n,t,r[t])})):Object.getOwnPropertyDescriptors?Object.defineProperties(n,Object.getOwnPropertyDescriptors(r)):t(Object(r)).forEach((function(t){Object.defineProperty(n,t,Object.getOwnPropertyDescriptor(r,t))}))}return n}function e(t){return(e="function"==typeof Symbol&&"symbol"==typeof Symbol.iterator?function(t){return typeof t}:function(t){return t&&"function"==typeof Symbol&&t.constructor===Symbol&&t!==Symbol.prototype?"symbol":typeof t})(t)}function r(t,n){if(!(t instanceof n))throw new TypeError("Cannot call a class as a function")}function i(t,n){for(var e=0;e<n.length;e++){var r=n[e];r.enumerable=r.enumerable||!1,r.configurable=!0,"value"in r&&(r.writable=!0),Object.defineProperty(t,r.key,r)}}function u(t,n,e){return n&&i(t.prototype,n),e&&i(t,e),t}function o(t,n,e){return n in t?Object.defineProperty(t,n,{value:e,enumerable:!0,configurable:!0,writable:!0}):t[n]=e,t}function a(t){return(a=Object.setPrototypeOf?Object.getPrototypeOf:function(t){return t.__proto__||Object.getPrototypeOf(t)})(t)}function l(t,n){return(l=Object.setPrototypeOf||function(t,n){return t.__proto__=n,t})(t,n)}function s(){if("undefined"==typeof Reflect||!Reflect.construct)return!1;if(Reflect.construct.sham)return!1;if("function"==typeof Proxy)return!0;try{return Boolean.prototype.valueOf.call(Reflect.construct(Boolean,[],(function(){}))),!0}catch(t){return!1}}function f(t,n,e){return(f=s()?Reflect.construct:function(t,n,e){var r=[null];r.push.apply(r,n);var i=new(Function.bind.apply(t,r));return e&&l(i,e.prototype),i}).apply(null,arguments)}function c(t,n){if(n&&("object"==typeof n||"function"==typeof n))return n;if(void 0!==n)throw new TypeError("Derived constructors may only return object or undefined");return function(t){if(void 0===t)throw new ReferenceError("this hasn't been initialised - super() hasn't been called");return t}(t)}function h(t,n,e){return(h="undefined"!=typeof Reflect&&Reflect.get?Reflect.get:function(t,n,e){var r=function(t,n){for(;!Object.prototype.hasOwnProperty.call(t,n)&&null!==(t=a(t)););return t}(t,n);if(r){var i=Object.getOwnPropertyDescriptor(r,n);return i.get?i.get.call(e):i.value}})(t,n,e||t)}function v(t){return function(t){if(Array.isArray(t))return y(t)}(t)||function(t){if("undefined"!=typeof Symbol&&null!=t[Symbol.iterator]||null!=t["@@iterator"])return Array.from(t)}(t)||function(t,n){if(!t)return;if("string"==typeof t)return y(t,n);var e=Object.prototype.toString.call(t).slice(8,-1);"Object"===e&&t.constructor&&(e=t.constructor.name);if("Map"===e||"Set"===e)return Array.from(t);if("Arguments"===e||/^(?:Ui|I)nt(?:8|16|32)(?:Clamped)?Array$/.test(e))return y(t,n)}(t)||function(){throw new TypeError("Invalid attempt to spread non-iterable instance.\nIn order to be iterable, non-array objects must have a [Symbol.iterator]() method.")}()}function y(t,n){(null==n||n>t.length)&&(n=t.length);for(var e=0,r=new Array(n);e<n;e++)r[e]=t[e];return r}Number.isInteger||(Number.isInteger=function(t){return"number"==typeof t&&isFinite(t)&&Math.floor(t)===t}),Number.EPSILON||(Number.EPSILON=2220446049250313e-31);var g=d(Math.pow(10,-6));function d(t){var n=arguments.length>1&&void 0!==arguments[1]?arguments[1]:6;if(Number.isInteger(t))return t;var e=Math.pow(10,n);return Math.round((+t+Number.EPSILON)*e)/e}function p(t,n){var e=arguments.length>2&&void 0!==arguments[2]?arguments[2]:g;return Math.abs(t-n)<e}var m=Math.PI/180;function b(t){return t}function w(t,n,e){var r=1-e;return 3*e*r*(t*r+n*e)+e*e*e}function x(){var t=arguments.length>0&&void 0!==arguments[0]?arguments[0]:0,n=arguments.length>1&&void 0!==arguments[1]?arguments[1]:0,e=arguments.length>2&&void 0!==arguments[2]?arguments[2]:1,r=arguments.length>3&&void 0!==arguments[3]?arguments[3]:1;return t<0||t>1||e<0||e>1?null:p(t,n)&&p(e,r)?b:function(i){if(i<=0)return t>0?i*n/t:0===n&&e>0?i*r/e:0;if(i>=1)return e<1?1+(i-1)*(r-1)/(e-1):1===e&&t<1?1+(i-1)*(n-1)/(t-1):1;for(var u,o=0,a=1;o<a;){var l=w(t,e,u=(o+a)/2);if(p(i,l))break;l<i?o=u:a=u}return w(n,r,u)}}function A(){return 1}function k(t){return 1===t?1:0}function _(){var t=arguments.length>0&&void 0!==arguments[0]?arguments[0]:1,n=arguments.length>1&&void 0!==arguments[1]?arguments[1]:0;if(1===t){if(0===n)return k;if(1===n)return A}var e=1/t;return function(t){return t>=1?1:(t+=n*e)-t%e}}var S=Math.sin,O=Math.cos,j=Math.acos,M=Math.asin,P=Math.tan,E=Math.atan2,I=Math.PI/180,R=180/Math.PI,F=Math.sqrt,N=function(){function t(){var n=arguments.length>0&&void 0!==arguments[0]?arguments[0]:1,e=arguments.length>1&&void 0!==arguments[1]?arguments[1]:0,i=arguments.length>2&&void 0!==arguments[2]?arguments[2]:0,u=arguments.length>3&&void 0!==arguments[3]?arguments[3]:1,o=arguments.length>4&&void 0!==arguments[4]?arguments[4]:0,a=arguments.length>5&&void 0!==arguments[5]?arguments[5]:0;r(this,t),this.m=[n,e,i,u,o,a],this.i=null,this.w=null,this.s=null}return u(t,[{key:"determinant",get:function(){var t=this.m;return t[0]*t[3]-t[1]*t[2]}},{key:"isIdentity",get:function(){if(null===this.i){var t=this.m;this.i=1===t[0]&&0===t[1]&&0===t[2]&&1===t[3]&&0===t[4]&&0===t[5]}return this.i}},{key:"point",value:function(t,n){var e=this.m;return{x:e[0]*t+e[2]*n+e[4],y:e[1]*t+e[3]*n+e[5]}}},{key:"translateSelf",value:function(){var t=arguments.length>0&&void 0!==arguments[0]?arguments[0]:0,n=arguments.length>1&&void 0!==arguments[1]?arguments[1]:0;if(!t&&!n)return this;var e=this.m;return e[4]+=e[0]*t+e[2]*n,e[5]+=e[1]*t+e[3]*n,this.w=this.s=this.i=null,this}},{key:"rotateSelf",value:function(){var t=arguments.length>0&&void 0!==arguments[0]?arguments[0]:0;if(t%=360){var n=S(t*=I),e=O(t),r=this.m,i=r[0],u=r[1];r[0]=i*e+r[2]*n,r[1]=u*e+r[3]*n,r[2]=r[2]*e-i*n,r[3]=r[3]*e-u*n,this.w=this.s=this.i=null}return this}},{key:"scaleSelf",value:function(){var t=arguments.length>0&&void 0!==arguments[0]?arguments[0]:1,n=arguments.length>1&&void 0!==arguments[1]?arguments[1]:1;if(1!==t||1!==n){var e=this.m;e[0]*=t,e[1]*=t,e[2]*=n,e[3]*=n,this.w=this.s=this.i=null}return this}},{key:"skewSelf",value:function(t,n){if(n%=360,(t%=360)||n){var e=this.m,r=e[0],i=e[1],u=e[2],o=e[3];t&&(t=P(t*I),e[2]+=r*t,e[3]+=i*t),n&&(n=P(n*I),e[0]+=u*n,e[1]+=o*n),this.w=this.s=this.i=null}return this}},{key:"resetSelf",value:function(){var t=arguments.length>0&&void 0!==arguments[0]?arguments[0]:1,n=arguments.length>1&&void 0!==arguments[1]?arguments[1]:0,e=arguments.length>2&&void 0!==arguments[2]?arguments[2]:0,r=arguments.length>3&&void 0!==arguments[3]?arguments[3]:1,i=arguments.length>4&&void 0!==arguments[4]?arguments[4]:0,u=arguments.length>5&&void 0!==arguments[5]?arguments[5]:0,o=this.m;return o[0]=t,o[1]=n,o[2]=e,o[3]=r,o[4]=i,o[5]=u,this.w=this.s=this.i=null,this}},{key:"recomposeSelf",value:function(){var t=arguments.length>0&&void 0!==arguments[0]?arguments[0]:null,n=arguments.length>1&&void 0!==arguments[1]?arguments[1]:null,e=arguments.length>2&&void 0!==arguments[2]?arguments[2]:null,r=arguments.length>3&&void 0!==arguments[3]?arguments[3]:null,i=arguments.length>4&&void 0!==arguments[4]?arguments[4]:null;return this.isIdentity||this.resetSelf(),t&&(t.x||t.y)&&this.translateSelf(t.x,t.y),n&&this.rotateSelf(n),e&&(e.x&&this.skewSelf(e.x,0),e.y&&this.skewSelf(0,e.y)),!r||1===r.x&&1===r.y||this.scaleSelf(r.x,r.y),i&&(i.x||i.y)&&this.translateSelf(i.x,i.y),this}},{key:"decompose",value:function(){var t=arguments.length>0&&void 0!==arguments[0]?arguments[0]:0,n=arguments.length>1&&void 0!==arguments[1]?arguments[1]:0,e=this.m,r=e[0]*e[0]+e[1]*e[1],i=[[e[0],e[1]],[e[2],e[3]]],u=F(r);if(0===u)return{origin:{x:d(e[4]),y:d(e[5])},translate:{x:d(t),y:d(n)},scale:{x:0,y:0},skew:{x:0,y:0},rotate:0};i[0][0]/=u,i[0][1]/=u;var o=e[0]*e[3]-e[1]*e[2]<0;o&&(u=-u);var a=i[0][0]*i[1][0]+i[0][1]*i[1][1];i[1][0]-=i[0][0]*a,i[1][1]-=i[0][1]*a;var l=F(i[1][0]*i[1][0]+i[1][1]*i[1][1]);if(0===l)return{origin:{x:d(e[4]),y:d(e[5])},translate:{x:d(t),y:d(n)},scale:{x:d(u),y:0},skew:{x:0,y:0},rotate:0};i[1][0]/=l,i[1][1]/=l,a/=l;var s=0;return i[1][1]<0?(s=j(i[1][1])*R,i[0][1]<0&&(s=360-s)):s=M(i[0][1])*R,o&&(s=-s),a=E(a,F(i[0][0]*i[0][0]+i[0][1]*i[0][1]))*R,o&&(a=-a),{origin:{x:d(e[4]),y:d(e[5])},translate:{x:d(t),y:d(n)},scale:{x:d(u),y:d(l)},skew:{x:d(a),y:0},rotate:d(s)}}},{key:"clone",value:function(){var t=this.m;return new this.constructor(t[0],t[1],t[2],t[3],t[4],t[5])}},{key:"toString",value:function(){var t=arguments.length>0&&void 0!==arguments[0]?arguments[0]:" ";if(null===this.s){var n=this.m.map((function(t){return d(t)}));1===n[0]&&0===n[1]&&0===n[2]&&1===n[3]?this.s="translate("+n[4]+t+n[5]+")":this.s="matrix("+n.join(t)+")"}return this.s}}],[{key:"create",value:function(t){return t?Array.isArray(t)?f(this,v(t)):t instanceof this?t.clone():(new this).recomposeSelf(t.origin,t.rotate,t.skew,t.scale,t.translate):new this}}]),t}();function T(t,n,e){return t>=.5?e:n}function q(t,n,e){return 0===t||n===e?n:t*(e-n)+n}function B(t,n,e){var r=q(t,n,e);return r<=0?0:r}function L(t,n,e){var r=q(t,n,e);return r<=0?0:r>=1?1:r}function C(t,n,e){return 0===t?n:1===t?e:{x:q(t,n.x,e.x),y:q(t,n.y,e.y)}}function D(t,n,e){var r=function(t,n,e){return Math.round(q(t,n,e))}(t,n,e);return r<=0?0:r>=255?255:r}function z(t,n,e){return 0===t?n:1===t?e:{r:D(t,n.r,e.r),g:D(t,n.g,e.g),b:D(t,n.b,e.b),a:q(t,null==n.a?1:n.a,null==e.a?1:e.a)}}function V(t,n){for(var e=[],r=0;r<t;r++)e.push(n);return e}function G(t,n){if(--n<=0)return t;var e=(t=Object.assign([],t)).length;do{for(var r=0;r<e;r++)t.push(t[r])}while(--n>0);return t}var Y,$=function(){function t(n){r(this,t),this.list=n,this.length=n.length}return u(t,[{key:"setAttribute",value:function(t,n){for(var e=this.list,r=0;r<this.length;r++)e[r].setAttribute(t,n)}},{key:"removeAttribute",value:function(t){for(var n=this.list,e=0;e<this.length;e++)n[e].removeAttribute(t)}},{key:"style",value:function(t,n){for(var e=this.list,r=0;r<this.length;r++)e[r].style[t]=n}}]),t}(),U=/-./g,Q=function(t,n){return n.toUpperCase()};function H(t){return"function"==typeof t?t:T}function J(t){return t?"function"==typeof t?t:Array.isArray(t)?function(t){var n=arguments.length>1&&void 0!==arguments[1]?arguments[1]:b;if(!Array.isArray(t))return n;switch(t.length){case 1:return _(t[0])||n;case 2:return _(t[0],t[1])||n;case 4:return x(t[0],t[1],t[2],t[3])||n}return n}(t,null):function(t,n){var e=arguments.length>2&&void 0!==arguments[2]?arguments[2]:b;switch(t){case"linear":return b;case"steps":return _(n.steps||1,n.jump||0)||e;case"bezier":case"cubic-bezier":return x(n.x1||0,n.y1||0,n.x2||0,n.y2||0)||e}return e}(t.type,t.value,null):null}function Z(t,n,e){var r=arguments.length>3&&void 0!==arguments[3]&&arguments[3],i=n.length-1;if(t<=n[0].t)return r?[0,0,n[0].v]:n[0].v;if(t>=n[i].t)return r?[i,1,n[i].v]:n[i].v;var u,o=n[0],a=null;for(u=1;u<=i;u++){if(!(t>n[u].t)){a=n[u];break}o=n[u]}return null==a?r?[i,1,n[i].v]:n[i].v:o.t===a.t?r?[u,1,a.v]:a.v:(t=(t-o.t)/(a.t-o.t),o.e&&(t=o.e(t)),r?[u,t,e(t,o.v,a.v)]:e(t,o.v,a.v))}function K(t,n){var e=arguments.length>2&&void 0!==arguments[2]?arguments[2]:null;return t&&t.length?"function"!=typeof n?null:("function"!=typeof e&&(e=null),function(r){var i=Z(r,t,n);return null!=i&&e&&(i=e(i)),i}):null}function W(t,n){return t.t-n.t}function X(t,n,r,i,u){var o,a="@"===r[0],l="#"===r[0],s=Y[r],f=T;switch(a?(o=r.substr(1),r=o.replace(U,Q)):l&&(r=r.substr(1)),e(s)){case"function":if(f=s(i,u,Z,J,r,a,n,t),l)return f;break;case"string":f=K(i,H(s));break;case"object":if((f=K(i,H(s.i),s.f))&&"function"==typeof s.u)return s.u(n,f,r,a,t)}return f?function(t,n,e){if(arguments.length>3&&void 0!==arguments[3]&&arguments[3])return t instanceof $?function(r){return t.style(n,e(r))}:function(r){return t.style[n]=e(r)};if(Array.isArray(n)){var r=n.length;return function(i){var u=e(i);if(null==u)for(var o=0;o<r;o++)t[o].removeAttribute(n);else for(var a=0;a<r;a++)t[a].setAttribute(n,u)}}return function(r){var i=e(r);null==i?t.removeAttribute(n):t.setAttribute(n,i)}}(n,r,f,a):null}function tt(t,n,r,i){if(!i||"object"!==e(i))return null;var u=null,o=null;return Array.isArray(i)?o=function(t){if(!t||!t.length)return null;for(var n=0;n<t.length;n++)t[n].e&&(t[n].e=J(t[n].e));return t.sort(W)}(i):(o=i.keys,u=i.data||null),o?X(t,n,r,o,u):null}function nt(t,n,e){if(!e)return null;var r=[];for(var i in e)if(e.hasOwnProperty(i)){var u=tt(t,n,i,e[i]);u&&r.push(u)}return r.length?r:null}function et(t,n){if(!n.settings.duration||n.settings.duration<0)return null;var e,r,i,u,o,a=function(t,n){if(!n)return null;var e=[];if(Array.isArray(n))for(var r=n.length,i=0;i<r;i++){var u=n[i];if(2===u.length){var o=null;if("string"==typeof u[0])o=t.getElementById(u[0]);else if(Array.isArray(u[0])){o=[];for(var a=0;a<u[0].length;a++)if("string"==typeof u[0][a]){var l=t.getElementById(u[0][a]);l&&o.push(l)}o=o.length?1===o.length?o[0]:new $(o):null}if(o){var s=nt(t,o,u[1]);s&&(e=e.concat(s))}}}else for(var f in n)if(n.hasOwnProperty(f)){var c=t.getElementById(f);if(c){var h=nt(t,c,n[f]);h&&(e=e.concat(h))}}return e.length?e:null}(t,n.elements);return a?(e=a,r=n.settings,i=r.duration,u=e.length,o=null,function(t,n){var a=r.iterations||1/0,l=(r.alternate&&a%2==0)^r.direction>0?i:0,s=t%i,f=1+(t-s)/i;n*=r.direction,r.alternate&&f%2==0&&(n=-n);var c=!1;if(f>a)s=l,c=!0,-1===r.fill&&(s=r.direction>0?0:i);else if(n<0&&(s=i-s),s===o)return!1;o=s;for(var h=0;h<u;h++)e[h](s);return c}):null}function rt(t,n){if(Y=n,!t||!t.root||!Array.isArray(t.animations))return null;var e=function(t){for(var n=document.getElementsByTagName("svg"),e=0;e<n.length;e++)if(n[e].id===t.root&&!n[e].svgatorAnimation)return n[e].svgatorAnimation=!0,n[e];return null}(t);if(!e)return null;var r=t.animations.map((function(t){return et(e,t)})).filter((function(t){return!!t}));return r.length?{svg:e,animations:r,animationSettings:t.animationSettings,options:t.options||void 0}:null}function it(t){return+("0x"+(t.replace(/[^0-9a-fA-F]+/g,"")||27))}function ut(t,n,e){return!t||!e||n>t.length?t:t.substring(0,n)+ut(t.substring(n+1),e,e)}function ot(t){var n=arguments.length>1&&void 0!==arguments[1]?arguments[1]:27;return!t||t%n?t%n:ot(t/n,n)}function at(t,n,e){if(t&&t.length){var r=it(e),i=it(n),u=ot(r)+5,o=ut(t,ot(r,5),u);return o=o.replace(/\x7c$/g,"==").replace(/\x2f$/g,"="),o=function(t,n,e){var r=+("0x"+t.substring(0,4));t=t.substring(4);for(var i=n%r+e%27,u=[],o=0;o<t.length;o+=2)if("|"!==t[o]){var a=+("0x"+t[o]+t[o+1])-i;u.push(a)}else{var l=+("0x"+t.substring(o+1,o+1+4))-i;o+=3,u.push(l)}return String.fromCharCode.apply(String,u)}(o=(o=atob(o)).replace(/[\x41-\x5A]/g,""),i,r),o=JSON.parse(o)}}var lt=[{key:"alternate",def:!1},{key:"fill",def:1},{key:"iterations",def:0},{key:"direction",def:1},{key:"speed",def:1},{key:"fps",def:100}],st=function(){function t(n,e){var i=this,u=arguments.length>2&&void 0!==arguments[2]?arguments[2]:null;r(this,t),this._id=0,this._running=!1,this._rollingBack=!1,this._animations=n,this._settings=e,(!u||u<"2022-05-02")&&delete this._settings.speed,lt.forEach((function(t){i._settings[t.key]=i._settings[t.key]||t.def})),this.duration=e.duration,this.offset=e.offset||0,this.rollbackStartOffset=0}return u(t,[{key:"alternate",get:function(){return this._settings.alternate}},{key:"fill",get:function(){return this._settings.fill}},{key:"iterations",get:function(){return this._settings.iterations}},{key:"direction",get:function(){return this._settings.direction}},{key:"speed",get:function(){return this._settings.speed}},{key:"fps",get:function(){return this._settings.fps}},{key:"maxFiniteDuration",get:function(){return this.iterations>0?this.iterations*this.duration:this.duration}},{key:"_apply",value:function(t){for(var n=arguments.length>1&&void 0!==arguments[1]?arguments[1]:{},e=this._animations,r=e.length,i=0,u=0;u<r;u++)n[u]?i++:(n[u]=e[u](t,1),n[u]&&i++);return i}},{key:"_rollback",value:function(t){var n=this,e=1/0,r=null;this.rollbackStartOffset=t,this._rollingBack=!0,this._running=!0;this._id=window.requestAnimationFrame((function i(u){if(n._rollingBack){null==r&&(r=u);var o=Math.round(t-(u-r)*n.speed);if(o>n.duration&&e!==1/0){var a=!!n.alternate&&o/n.duration%2>1,l=o%n.duration;o=(l+=a?n.duration:0)||n.duration}var s=(n.fps?1e3/n.fps:0)*n.speed,f=Math.max(0,o);f<e-s&&(n.offset=f,e=f,n._apply(f));var c=n.iterations>0&&-1===n.fill&&o>=n.maxFiniteDuration;(o<=0||n.offset<o||c)&&n.stop(),n._id=window.requestAnimationFrame(i)}}))}},{key:"_start",value:function(){var t=this,n=arguments.length>0&&void 0!==arguments[0]?arguments[0]:0,e=-1/0,r=null,i={};this._running=!0;var u=function u(o){null==r&&(r=o);var a=Math.round((o-r)*t.speed+n),l=(t.fps?1e3/t.fps:0)*t.speed;if(a>e+l&&!t._rollingBack&&(t.offset=a,e=a,t._apply(a,i)===t._animations.length))return void t.pause(!0);t._id=window.requestAnimationFrame(u)};this._id=window.requestAnimationFrame(u)}},{key:"_pause",value:function(){this._id&&window.cancelAnimationFrame(this._id),this._running=!1}},{key:"play",value:function(){if(!this._running)return this._rollingBack?this._rollback(this.offset):this._start(this.offset)}},{key:"stop",value:function(){this._pause(),this.offset=0,this.rollbackStartOffset=0,this._rollingBack=!1,this._apply(0)}},{key:"reachedToEnd",value:function(){return this.iterations>0&&this.offset>=this.iterations*this.duration}},{key:"restart",value:function(){var t=arguments.length>0&&void 0!==arguments[0]&&arguments[0];this.stop(t),this.play(t)}},{key:"pause",value:function(){this._pause()}},{key:"reverse",value:function(){this.direction=-this.direction}}],[{key:"build",value:function(t,n){delete t.animationSettings,t.options=at(t.options,t.root,"5c7f360c"),t.animations.map((function(n){n.settings=at(n.s,t.root,"5c7f360c"),delete n.s,t.animationSettings||(t.animationSettings=n.settings)}));var e=t.version;if(!(t=rt(t,n)))return null;var r=t.options||{},i=new this(t.animations,t.animationSettings,e);return{el:t.svg,options:r,player:i}}},{key:"push",value:function(t){return this.build(t)}},{key:"init",value:function(){var t=this,n=window.__SVGATOR_PLAYER__&&window.__SVGATOR_PLAYER__["5c7f360c"];Array.isArray(n)&&n.splice(0).forEach((function(n){return t.build(n)}))}}]),t}();function ft(t){return d(t)+""}function ct(t){var n=arguments.length>1&&void 0!==arguments[1]?arguments[1]:" ";return t&&t.length?t.map(ft).join(n):""}function ht(t){if(!t)return"transparent";if(null==t.a||t.a>=1){var n=function(t){return 1===(t=parseInt(t).toString(16)).length?"0"+t:t},e=function(t){return t.charAt(0)===t.charAt(1)},r=n(t.r),i=n(t.g),u=n(t.b);return e(r)&&e(i)&&e(u)&&(r=r.charAt(0),i=i.charAt(0),u=u.charAt(0)),"#"+r+i+u}return"rgba("+t.r+","+t.g+","+t.b+","+t.a+")"}function vt(t){return t?"url(#"+t+")":"none"}!function(){for(var t=0,n=["ms","moz","webkit","o"],e=0;e<n.length&&!window.requestAnimationFrame;++e)window.requestAnimationFrame=window[n[e]+"RequestAnimationFrame"],window.cancelAnimationFrame=window[n[e]+"CancelAnimationFrame"]||window[n[e]+"CancelRequestAnimationFrame"];window.requestAnimationFrame||(window.requestAnimationFrame=function(n){var e=Date.now(),r=Math.max(0,16-(e-t)),i=window.setTimeout((function(){n(e+r)}),r);return t=e+r,i},window.cancelAnimationFrame=window.clearTimeout)}();var yt={f:null,i:function(t,n,e){return 0===t?n:1===t?e:{x:B(t,n.x,e.x),y:B(t,n.y,e.y)}},u:function(t,n){return function(e){var r=n(e);t.setAttribute("rx",ft(r.x)),t.setAttribute("ry",ft(r.y))}}},gt={f:null,i:function(t,n,e){return 0===t?n:1===t?e:{width:B(t,n.width,e.width),height:B(t,n.height,e.height)}},u:function(t,n){return function(e){var r=n(e);t.setAttribute("width",ft(r.width)),t.setAttribute("height",ft(r.height))}}};Object.freeze({M:2,L:2,Z:0,H:1,V:1,C:6,Q:4,T:2,S:4,A:7});var dt={},pt=null;function mt(t){var n=function(){if(pt)return pt;if("object"!==("undefined"==typeof document?"undefined":e(document))||!document.createElementNS)return{};var t=document.createElementNS("http://www.w3.org/2000/svg","svg");return t&&t.style?(t.style.position="absolute",t.style.opacity="0.01",t.style.zIndex="-9999",t.style.left="-9999px",t.style.width="1px",t.style.height="1px",pt={svg:t}):{}}().svg;if(!n)return function(t){return null};var r=document.createElementNS(n.namespaceURI,"path");r.setAttributeNS(null,"d",t),r.setAttributeNS(null,"fill","none"),r.setAttributeNS(null,"stroke","none"),n.appendChild(r);var i=r.getTotalLength();return function(t){var n=r.getPointAtLength(i*t);return{x:n.x,y:n.y}}}function bt(t){return dt[t]?dt[t]:dt[t]=mt(t)}function wt(t,n,e,r){if(!t||!r)return!1;var i=["M",t.x,t.y];if(n&&e&&(i.push("C"),i.push(n.x),i.push(n.y),i.push(e.x),i.push(e.y)),n?!e:e){var u=n||e;i.push("Q"),i.push(u.x),i.push(u.y)}return n||e||i.push("L"),i.push(r.x),i.push(r.y),i.join(" ")}function xt(t,n,e,r){var i=arguments.length>4&&void 0!==arguments[4]?arguments[4]:1,u=wt(t,n,e,r),o=bt(u);try{return o(i)}catch(t){return null}}function At(t,n,e){return t+(n-t)*e}function kt(t,n,e){var r=arguments.length>3&&void 0!==arguments[3]&&arguments[3],i={x:At(t.x,n.x,e),y:At(t.y,n.y,e)};return r&&(i.a=_t(t,n)),i}function _t(t,n){return Math.atan2(n.y-t.y,n.x-t.x)}function St(t,n,e,r){var i=1-r;return i*i*t+2*i*r*n+r*r*e}function Ot(t,n,e,r){return 2*(1-r)*(n-t)+2*r*(e-n)}function jt(t,n,e,r){var i=arguments.length>4&&void 0!==arguments[4]&&arguments[4],u=xt(t,n,null,e,r);return u||(u={x:St(t.x,n.x,e.x,r),y:St(t.y,n.y,e.y,r)}),i&&(u.a=Mt(t,n,e,r)),u}function Mt(t,n,e,r){return Math.atan2(Ot(t.y,n.y,e.y,r),Ot(t.x,n.x,e.x,r))}function Pt(t,n,e,r,i){var u=i*i;return i*u*(r-t+3*(n-e))+3*u*(t+e-2*n)+3*i*(n-t)+t}function Et(t,n,e,r,i){var u=1-i;return 3*(u*u*(n-t)+2*u*i*(e-n)+i*i*(r-e))}function It(t,n,e,r,i){var u=arguments.length>5&&void 0!==arguments[5]&&arguments[5],o=xt(t,n,e,r,i);return o||(o={x:Pt(t.x,n.x,e.x,r.x,i),y:Pt(t.y,n.y,e.y,r.y,i)}),u&&(o.a=Rt(t,n,e,r,i)),o}function Rt(t,n,e,r,i){return Math.atan2(Et(t.y,n.y,e.y,r.y,i),Et(t.x,n.x,e.x,r.x,i))}function Ft(t,n,e){var r=arguments.length>3&&void 0!==arguments[3]&&arguments[3];if(Tt(n)){if(qt(e))return jt(n,e.start,e,t,r)}else if(Tt(e)){if(Bt(n))return jt(n,n.end,e,t,r)}else{if(Bt(n))return qt(e)?It(n,n.end,e.start,e,t,r):jt(n,n.end,e,t,r);if(qt(e))return jt(n,e.start,e,t,r)}return kt(n,e,t,r)}function Nt(t,n,e){var r=Ft(t,n,e,!0);return r.a=function(t){return arguments.length>1&&void 0!==arguments[1]&&arguments[1]?t+Math.PI:t}(r.a)/m,r}function Tt(t){return!t.type||"corner"===t.type}function qt(t){return null!=t.start&&!Tt(t)}function Bt(t){return null!=t.end&&!Tt(t)}var Lt=new N;var Ct={f:ft,i:q},Dt={f:ft,i:L};function zt(t,n,e){return t.map((function(t){return function(t,n,e){var r=t.v;if(!r||"g"!==r.t||r.s||!r.v||!r.r)return t;var i=e.getElementById(r.r),u=i&&i.querySelectorAll("stop")||[];return r.s=r.v.map((function(t,n){var e=u[n]&&u[n].getAttribute("offset");return{c:t,o:e=d(parseInt(e)/100)}})),delete r.v,t}(t,0,e)}))}var Vt={gt:"gradientTransform",c:{x:"cx",y:"cy"},rd:"r",f:{x:"x1",y:"y1"},to:{x:"x2",y:"y2"}};function Gt(t,n,r,i,u,o,a,l){return zt(t,0,l),n=function(t,n,e){for(var r,i,u,o=t.length-1,a={},l=0;l<=o;l++)(r=t[l]).e&&(r.e=n(r.e)),r.v&&"g"===(i=r.v).t&&i.r&&(u=e.getElementById(i.r))&&(a[i.r]={e:u,s:u.querySelectorAll("stop")});return a}(t,i,l),function(i){var u=r(i,t,Yt);if(!u)return"none";if("c"===u.t)return ht(u.v);if("g"===u.t){if(!n[u.r])return vt(u.r);var o=n[u.r];return function(t,n){for(var e=t.s,r=e.length;r<n.length;r++){var i=e[e.length-1].cloneNode();i.id=Qt(i.id),t.e.appendChild(i),e=t.s=t.e.querySelectorAll("stop")}for(var u=0,o=e.length,a=n.length-1;u<o;u++)e[u].setAttribute("stop-color",ht(n[Math.min(u,a)].c)),e[u].setAttribute("offset",n[Math.min(u,a)].o)}(o,u.s),Object.keys(Vt).forEach((function(t){if(void 0!==u[t])if("object"!==e(Vt[t])){var n,r="gt"===t?(n=u[t],Array.isArray(n)?"matrix("+n.join(" ")+")":""):u[t],i=Vt[t];o.e.setAttribute(i,r)}else Object.keys(Vt[t]).forEach((function(n){if(void 0!==u[t][n]){var e=u[t][n],r=Vt[t][n];o.e.setAttribute(r,e)}}))})),vt(u.r)}return"none"}}function Yt(t,e,r){if(0===t)return e;if(1===t)return r;if(e&&r){var i=e.t;if(i===r.t)switch(e.t){case"c":return{t:i,v:z(t,e.v,r.v)};case"g":if(e.r===r.r){var u={t:i,s:$t(t,e.s,r.s),r:e.r};return e.gt&&r.gt&&(u.gt=function(t,n,e){var r=n.length;if(r!==e.length)return T(t,n,e);for(var i=new Array(r),u=0;u<r;u++)i[u]=q(t,n[u],e[u]);return i}(t,e.gt,r.gt)),e.c?(u.c=C(t,e.c,r.c),u.rd=B(t,e.rd,r.rd)):e.f&&(u.f=C(t,e.f,r.f),u.to=C(t,e.to,r.to)),u}}if("c"===e.t&&"g"===r.t||"c"===r.t&&"g"===e.t){var o="c"===e.t?e:r,a="g"===e.t?n({},e):n({},r),l=a.s.map((function(t){return{c:o.v,o:t.o}}));return a.s="c"===e.t?$t(t,l,a.s):$t(t,a.s,l),a}}return T(t,e,r)}function $t(t,n,e){if(n.length===e.length)return n.map((function(n,r){return Ut(t,n,e[r])}));for(var r=Math.max(n.length,e.length),i=[],u=0;u<r;u++){var o=Ut(t,n[Math.min(u,n.length-1)],e[Math.min(u,e.length-1)]);i.push(o)}return i}function Ut(t,n,e){return{o:L(t,n.o,e.o||0),c:z(t,n.c,e.c||{})}}function Qt(t){return t.replace(/-fill-([0-9]+)$/,(function(t,n){return"-fill-"+(+n+1)}))}var Ht={fill:Gt,"fill-opacity":Dt,stroke:Gt,"stroke-opacity":Dt,"stroke-width":Ct,"stroke-dashoffset":{f:ft,i:q},"stroke-dasharray":{f:function(t){var n=arguments.length>1&&void 0!==arguments[1]?arguments[1]:" ";return t&&t.length>0&&(t=t.map((function(t){return d(t,4)}))),ct(t,n)},i:function(t,n,e){var r,i,u,o=n.length,a=e.length;if(o!==a)if(0===o)n=V(o=a,0);else if(0===a)a=o,e=V(o,0);else{var l=(u=(r=o)*(i=a)/function(t,n){for(var e;n;)e=n,n=t%n,t=e;return t||1}(r,i))<0?-u:u;n=G(n,Math.floor(l/o)),e=G(e,Math.floor(l/a)),o=a=l}for(var s=[],f=0;f<o;f++)s.push(d(B(t,n[f],e[f])));return s}},opacity:Dt,transform:function(t,n,r,i){if(!(t=function(t,n){if(!t||"object"!==e(t))return null;var r=!1;for(var i in t)t.hasOwnProperty(i)&&(t[i]&&t[i].length?(t[i].forEach((function(t){t.e&&(t.e=n(t.e))})),r=!0):delete t[i]);return r?t:null}(t,i)))return null;var u=function(e,i,u){var o=arguments.length>3&&void 0!==arguments[3]?arguments[3]:null;return t[e]?r(i,t[e],u):n&&n[e]?n[e]:o};return n&&n.a&&t.o?function(n){var e=r(n,t.o,Nt);return Lt.recomposeSelf(e,u("r",n,q,0)+e.a,u("k",n,C),u("s",n,C),u("t",n,C)).toString()}:function(t){return Lt.recomposeSelf(u("o",t,Ft,null),u("r",t,q,0),u("k",t,C),u("s",t,C),u("t",t,C)).toString()}},r:Ct,"#size":gt,"#radius":yt,_:function(t,n){if(Array.isArray(t))for(var e=0;e<t.length;e++)this[t[e]]=n;else this[t]=n}},Jt=function(t){!function(t,n){if("function"!=typeof n&&null!==n)throw new TypeError("Super expression must either be null or a function");t.prototype=Object.create(n&&n.prototype,{constructor:{value:t,writable:!0,configurable:!0}}),n&&l(t,n)}(o,t);var n,e,i=(n=o,e=s(),function(){var t,r=a(n);if(e){var i=a(this).constructor;t=Reflect.construct(r,arguments,i)}else t=r.apply(this,arguments);return c(this,t)});function o(){return r(this,o),i.apply(this,arguments)}return u(o,null,[{key:"build",value:function(t){var n=h(a(o),"build",this).call(this,t,Ht);if(!n)return null;n.el,n.options,function(t,n,e){t.play()}(n.player)}}]),o}(st);return Jt.init(),Jt}));
(function(s,i,o,w,a,b){w[o]=w[o]||{};w[o][s]=w[o][s]||[];w[o][s].push(i);})('5c7f360c',{"root":"e3NdyvB5Tq81","version":"2022-05-04","animations":[{"elements":{"e3NdyvB5Tq82":{"opacity":[{"t":0,"v":0},{"t":3000,"v":0.1}]},"e3NdyvB5Tq83":{"transform":{"data":{"o":{"x":403.435002,"y":292.624724,"type":"corner"},"t":{"x":-410.635002,"y":-302.640015}},"keys":{"s":[{"t":0,"v":{"x":0.01774,"y":-0.057369}},{"t":600,"v":{"x":1,"y":1}}]}}},"e3NdyvB5Tq84":{"opacity":[{"t":0,"v":0},{"t":3000,"v":0.4}]},"e3NdyvB5Tq85":{"opacity":[{"t":0,"v":0},{"t":3000,"v":0.4}]},"e3NdyvB5Tq88":{"transform":{"data":{"t":{"x":-560.470001,"y":-485.910019}},"keys":{"o":[{"t":1200,"v":{"x":854.470001,"y":485.910019,"type":"corner"}},{"t":1400,"v":{"x":549.470001,"y":485.910019,"type":"corner"}}]}}},"e3NdyvB5Tq89":{"transform":{"data":{"t":{"x":-554.779999,"y":-485.910019}},"keys":{"o":[{"t":1200,"v":{"x":848.779999,"y":485.910019,"type":"corner"}},{"t":1400,"v":{"x":543.779999,"y":485.910019,"type":"corner"}}]}}},"e3NdyvB5Tq811":{"transform":{"data":{"t":{"x":-592.125,"y":-485.910019}},"keys":{"o":[{"t":900,"v":{"x":812.125,"y":485.910019,"type":"corner"}},{"t":1100,"v":{"x":591.125,"y":485.910019,"type":"corner"}}]}}},"e3NdyvB5Tq814":{"transform":{"data":{"t":{"x":-352.664993,"y":-485.910019}},"keys":{"o":[{"t":1700,"v":{"x":815.664993,"y":485.910019,"type":"corner"}},{"t":1900,"v":{"x":366.331093,"y":486.101699,"type":"corner"}}]}}},"e3NdyvB5Tq815":{"transform":{"data":{"t":{"x":-346.985001,"y":-485.910019}},"keys":{"o":[{"t":1700,"v":{"x":820.985001,"y":485.910019,"type":"corner"}},{"t":1900,"v":{"x":361.555001,"y":486.101699,"type":"corner"}}]}}},"e3NdyvB5Tq816":{"transform":{"data":{"t":{"x":-443.714996,"y":-373.625}},"keys":{"o":[{"t":600,"v":{"x":421.354996,"y":-6.745,"type":"corner"}},{"t":800,"v":{"x":421.354996,"y":358.255,"type":"corner"}}]}}},"e3NdyvB5Tq818":{"opacity":[{"t":0,"v":1},{"t":810,"v":0}]},"e3NdyvB5Tq822":{"transform":{"data":{"t":{"x":148.76735,"y":-376.527161}},"keys":{"o":[{"t":1900,"v":{"x":-148.767349,"y":376.527161,"type":"corner"}},{"t":2300,"v":{"x":327.232651,"y":371.527161,"type":"corner"}}]}}},"e3NdyvB5Tq843":{"opacity":[{"t":0,"v":0},{"t":3000,"v":1}]},"e3NdyvB5Tq845":{"transform":{"data":{"o":{"x":553.870621,"y":103.265003,"type":"corner"},"t":{"x":-553.870621,"y":-103.265003}},"keys":{"s":[{"t":2500,"v":{"x":-0.092593,"y":0.046693}},{"t":2800,"v":{"x":1,"y":1}}]}}},"e3NdyvB5Tq846":{"opacity":[{"t":1700,"v":0},{"t":2400,"v":1}]},"e3NdyvB5Tq847":{"opacity":[{"t":2000,"v":0},{"t":3000,"v":0.2}]}},"s":"MYDA1M2MwNjdhOWJhYjTdhNmI5YWViNGIzTzYB3N2Y3OEU3NTc1NzU3GMTY3YTlhZWI3YWFhONGI5YWViNGIzNjdSN2VY3NjcxNjdhZWI5YWFIiN2E2YjlhZWI0YjNGGYjg2NzdmNzY3MTY3YXWJhZWIxYjE2NzdmNzBY3MTY3RWE2YjFiOWFHhYjdiM2E2YjlhYTY3DN2ZhYmE2YjFiOGFhNLzE2N2I4RmI1UmFhYWWFhOTY3N2Y3NmMy"}],"options":"MYDAxMDg4MmY4MDgxNmXU3ZjgxMmY0NzJmWTcF5N2M2ZTcxMmY4YQ|"},'__SVGATOR_PLAYER__',window)]]></script></svg>