<svg id="e6AcLDvjnQw1" xmlns="http://www.w3.org/2000/svg" xmlns:xlink="http://www.w3.org/1999/xlink" viewBox="0 0 800 600" shape-rendering="geometricPrecision" text-rendering="geometricPrecision"><defs><linearGradient id="e6AcLDvjnQw3-fill" x1="410.635" y1="-1.336" x2="410.635" y2="600.908" spreadMethod="pad" gradientUnits="userSpaceOnUse" gradientTransform="translate(0 0)"><stop id="e6AcLDvjnQw3-fill-0" offset="0%" stop-color="#70b"/><stop id="e6AcLDvjnQw3-fill-1" offset="100%" stop-color="#00008b"/><stop id="e6AcLDvjnQw3-fill-2" offset="100%" stop-color="#000"/></linearGradient><linearGradient id="e6AcLDvjnQw7-fill" x1="641.158" y1="489.084" x2="644.282" y2="489.084" spreadMethod="pad" gradientUnits="userSpaceOnUse" gradientTransform="translate(0 0)"><stop id="e6AcLDvjnQw7-fill-0" offset="4.1%" stop-color="#100060"/><stop id="e6AcLDvjnQw7-fill-1" offset="100%" stop-color="#090e96"/></linearGradient><linearGradient id="e6AcLDvjnQw17-fill" x1="407.438" y1="318.561" x2="538.178" y2="318.561" spreadMethod="pad" gradientUnits="userSpaceOnUse" gradientTransform="translate(0 0)"><stop id="e6AcLDvjnQw17-fill-0" offset="0%" stop-color="#a1baff"/><stop id="e6AcLDvjnQw17-fill-1" offset="43.3%" stop-color="#fff"/></linearGradient><linearGradient id="e6AcLDvjnQw19-fill" x1="487.791" y1="359.186" x2="519.543" y2="359.186" spreadMethod="pad" gradientUnits="userSpaceOnUse" gradientTransform="translate(0 0)"><stop id="e6AcLDvjnQw19-fill-0" offset="0%" stop-color="#a1baff"/><stop id="e6AcLDvjnQw19-fill-1" offset="43.3%" stop-color="#fff"/></linearGradient><linearGradient id="e6AcLDvjnQw25-fill" x1="242.597" y1="314.881" x2="394.824" y2="314.881" spreadMethod="pad" gradientUnits="userSpaceOnUse" gradientTransform="translate(0 0)"><stop id="e6AcLDvjnQw25-fill-0" offset="0%" stop-color="#311341"/><stop id="e6AcLDvjnQw25-fill-1" offset="23%" stop-color="#3113c2"/><stop id="e6AcLDvjnQw25-fill-2" offset="34.8%" stop-color="#2f18c5"/><stop id="e6AcLDvjnQw25-fill-3" offset="49.3%" stop-color="#2927cc"/><stop id="e6AcLDvjnQw25-fill-4" offset="65.2%" stop-color="#1f40d8"/><stop id="e6AcLDvjnQw25-fill-5" offset="82.2%" stop-color="#1263e9"/><stop id="e6AcLDvjnQw25-fill-6" offset="99.8%" stop-color="#008fff"/><stop id="e6AcLDvjnQw25-fill-7" offset="100%" stop-color="#0090ff"/></linearGradient><linearGradient id="e6AcLDvjnQw26-fill" x1="260.194" y1="196.16" x2="287.175" y2="267.796" spreadMethod="pad" gradientUnits="userSpaceOnUse" gradientTransform="translate(0 0)"><stop id="e6AcLDvjnQw26-fill-0" offset="0%" stop-color="#a1baff"/><stop id="e6AcLDvjnQw26-fill-1" offset="43.3%" stop-color="#fff"/></linearGradient><linearGradient id="e6AcLDvjnQw29-fill" x1="340.829" y1="474.88" x2="345.481" y2="581.868" spreadMethod="pad" gradientUnits="userSpaceOnUse" gradientTransform="translate(0 0)"><stop id="e6AcLDvjnQw29-fill-0" offset="4.1%" stop-color="#100022"/><stop id="e6AcLDvjnQw29-fill-1" offset="100%" stop-color="#090e96"/></linearGradient><linearGradient id="e6AcLDvjnQw31-fill" x1="334.145" y1="446.239" x2="458.197" y2="587.658" spreadMethod="pad" gradientUnits="userSpaceOnUse" gradientTransform="translate(0 0)"><stop id="e6AcLDvjnQw31-fill-0" offset="4.1%" stop-color="#10003b"/><stop id="e6AcLDvjnQw31-fill-1" offset="100%" stop-color="#090e96"/></linearGradient><linearGradient id="e6AcLDvjnQw32-fill" x1="211.814" y1="363.16" x2="337.41" y2="363.16" spreadMethod="pad" gradientUnits="userSpaceOnUse" gradientTransform="translate(0 0)"><stop id="e6AcLDvjnQw32-fill-0" offset="0%" stop-color="#7633ff"/><stop id="e6AcLDvjnQw32-fill-1" offset="15.9%" stop-color="#7137ff"/><stop id="e6AcLDvjnQw32-fill-2" offset="35.3%" stop-color="#6243ff"/><stop id="e6AcLDvjnQw32-fill-3" offset="56.8%" stop-color="#4957ff"/><stop id="e6AcLDvjnQw32-fill-4" offset="79.4%" stop-color="#2672ff"/><stop id="e6AcLDvjnQw32-fill-5" offset="100%" stop-color="#0090ff"/></linearGradient><linearGradient id="e6AcLDvjnQw35-fill" x1="299.975" y1="304.053" x2="445.298" y2="355.219" spreadMethod="pad" gradientUnits="userSpaceOnUse" gradientTransform="translate(0 0)"><stop id="e6AcLDvjnQw35-fill-0" offset="0%" stop-color="#7633ff"/><stop id="e6AcLDvjnQw35-fill-1" offset="9.7%" stop-color="#7137ff"/><stop id="e6AcLDvjnQw35-fill-2" offset="21.6%" stop-color="#6243ff"/><stop id="e6AcLDvjnQw35-fill-3" offset="34.6%" stop-color="#4957ff"/><stop id="e6AcLDvjnQw35-fill-4" offset="48.4%" stop-color="#2672ff"/><stop id="e6AcLDvjnQw35-fill-5" offset="61%" stop-color="#0090ff"/></linearGradient><linearGradient id="e6AcLDvjnQw46-fill" x1="112.784" y1="214.635" x2="627.311" y2="314.649" spreadMethod="pad" gradientUnits="userSpaceOnUse" gradientTransform="translate(0 0)"><stop id="e6AcLDvjnQw46-fill-0" offset="0.4%" stop-color="rgba(118,51,255,0)"/><stop id="e6AcLDvjnQw46-fill-1" offset="9.2%" stop-color="rgba(112,81,255,0.088)"/><stop id="e6AcLDvjnQw46-fill-2" offset="26.3%" stop-color="rgba(102,133,255,0.26)"/><stop id="e6AcLDvjnQw46-fill-3" offset="43%" stop-color="rgba(94,177,255,0.428)"/><stop id="e6AcLDvjnQw46-fill-4" offset="59.1%" stop-color="rgba(87,211,255,0.589)"/><stop id="e6AcLDvjnQw46-fill-5" offset="74.3%" stop-color="rgba(83,235,255,0.742)"/><stop id="e6AcLDvjnQw46-fill-6" offset="88.3%" stop-color="rgba(80,250,255,0.883)"/><stop id="e6AcLDvjnQw46-fill-7" offset="100%" stop-color="#4fffff"/></linearGradient><linearGradient id="e6AcLDvjnQw47-fill" x1="393.064" y1="120.397" x2="519.623" y2="120.397" spreadMethod="pad" gradientUnits="userSpaceOnUse" gradientTransform="translate(0 0)"><stop id="e6AcLDvjnQw47-fill-0" offset="0%" stop-color="#a1baff"/><stop id="e6AcLDvjnQw47-fill-1" offset="8.9%" stop-color="#acc2ff"/><stop id="e6AcLDvjnQw47-fill-2" offset="49.9%" stop-color="#d9e3ff"/><stop id="e6AcLDvjnQw47-fill-3" offset="81.6%" stop-color="#f5f7ff"/><stop id="e6AcLDvjnQw47-fill-4" offset="100%" stop-color="#fff"/></linearGradient></defs><path d="M690.59,464.13h80.29c4.36-2.25,7.35-6.82,7.35-12.09c0-6.82-5.01-12.47-11.53-13.44.01-.22.02-.44.02-.67c0-7.98-6.6-14.45-14.74-14.45-.85,0-1.68.07-2.5.21-3.51-6.09-10.36-10.22-18.23-10.22-9.17,0-16.95,5.61-19.68,13.39-.86-.17-1.75-.27-2.65-.27-7.82,0-14.16,6.73-14.16,15.03c0,.93.08,1.85.23,2.73-5.92.38-10.6,4.91-10.6,10.45c0,4.07,2.52,7.59,6.2,9.33Z" opacity="0.1" fill="#fff"/><path d="M745.2,339.56C745.2,154.79,595.41,5,410.63,5C225.86,5,76.07,154.79,76.07,339.56c0,105.4,48.76,199.4,124.93,260.72h419.27C696.44,538.96,745.2,444.96,745.2,339.56Z" transform="translate(-7.2-10.015291)" fill="url(#e6AcLDvjnQw3-fill)"/><path d="M503.67,209.55c0,2.06-.65,3.72-1.45,3.72h-82.25c-.8,0-1.45-1.67-1.45-3.72c0-2.06.65-3.72,1.45-3.72h82.25c.8,0,1.45,1.67,1.45,3.72Z" opacity="0.4" fill="#fff"/><path d="M667.1,175.99c0,2.06-1.9,3.72-4.24,3.72h-240.1c-2.34,0-4.24-1.67-4.24-3.72c0-2.06,1.9-3.72,4.24-3.72h240.1c2.34,0,4.24,1.67,4.24,3.72Zm-83.99,15.82c0,2.06-1.26,3.72-2.81,3.72h-158.98c-1.55,0-2.81-1.67-2.81-3.72c0-2.06,1.26-3.72,2.81-3.72h158.98c1.55,0,2.81,1.66,2.81,3.72Z" opacity="0.4" fill="#fff"/><path d="M300.72,582.47v-.86h55.07Zm-17.19,0l-47.38-.86h47.38Z" clip-rule="evenodd" fill="#fff" fill-rule="evenodd"/><path d="M643.13,507.56c0,0-2.16-13.67-1.95-16.61s1.02-18.47,1.02-18.47l2.09-1.86c0,0-2.06,17.3-1.8,22.41.25,5.1.64,14.53.64,14.53Z" fill="url(#e6AcLDvjnQw7-fill)"/><path d="M554.68,371.79h11.58v228.24h-11.58Z" transform="translate(-11 0)" clip-rule="evenodd" fill="#1289cc" fill-rule="evenodd"/><path d="M548.99,371.79h11.58v228.24h-11.58Z" transform="translate(-11 0)" clip-rule="evenodd" fill-rule="evenodd"/><path d="M592.05,371.79h11.53v228.24h-11.53Z" clip-rule="evenodd" fill="#1289cc" fill-rule="evenodd"/><path d="M586.36,371.79h11.53v228.24h-11.53Z" transform="translate(-1 0)" clip-rule="evenodd" fill-rule="evenodd"/><path d="M309.53,371.79h11.58v228.24h-11.58Z" clip-rule="evenodd" fill="#125cae" fill-rule="evenodd"/><path d="M303.85,371.79h11.58v228.24h-11.58Z" clip-rule="evenodd" fill-rule="evenodd"/><path d="M346.9,371.79h11.53v228.24h-11.53Z" transform="translate(13.6661 0.19168)" clip-rule="evenodd" fill="#1289cc" fill-rule="evenodd"/><path d="M341.22,371.79h11.53v228.24h-11.53Z" transform="translate(14.57 0.19168)" clip-rule="evenodd" fill-rule="evenodd"/><path d="M261.49,362.32h364.45v22.61h-364.45Z" transform="translate(-22.36-15.37)" clip-rule="evenodd" fill-rule="evenodd"/><path d="M424.23,280.97l112.16-7.9l1.79,3.93-14.71,80.25h-5.17l-110.86,6.8Z" clip-rule="evenodd" fill="url(#e6AcLDvjnQw17-fill)" fill-rule="evenodd"/><path d="M420.31,273.07h115.68L519.2,356.2h-115.69Z" clip-rule="evenodd" fill-rule="evenodd"/><path d="M487.79,356.05h31.75v6.26h-31.75Z" clip-rule="evenodd" fill="url(#e6AcLDvjnQw19-fill)" fill-rule="evenodd"/><path d="M380.85,356.05h106.94v6.26h-106.94Z" clip-rule="evenodd" fill="#431ca3" fill-rule="evenodd"/><path d="M424.23,277.89l-14.86,73.44h105.85l14.86-73.44Z" clip-rule="evenodd" fill="#3f2759" fill-rule="evenodd"/><g transform="translate(476.000001-5)"><path d="M443.71,362.32c3.58.44,11.13-.7,16.5-4.17c5.32-3.48,9.54-6.78,9.54-6.78s11.59,1.51,12.33-1.14c.32-3.54-15.02-7.73-17.15-7.98-2.19-.25-20.17,2.28-22.01,4.12-1.84,1.83.79,15.95.79,15.95Zm-59.93-10.09c3.58.45,11.13-.69,16.45-4.17s10.39-8.55,10.39-8.55s11.58,1.09,11.33,0c-.3-1.04-14.81-7.11-17-7.35-2.14-.25-20.17,2.29-22.01,4.13-1.84,1.82.84,15.94.84,15.94Z" transform="translate(-489 0)" clip-rule="evenodd" fill="#fff" fill-rule="evenodd"/><path d="M404.8,338.22c1.14,1.44,8.4,6.86,7.01,8.94-1.39,2.14-4.72,3.03-8.35.4s-5.91-5.72-4.92-6.76c1-1.04,6.26-2.58,6.26-2.58Z" transform="translate(-489 0)" clip-rule="evenodd" fill="#fff" fill-rule="evenodd"/><path d="M250.31,266.61c-11.03,4.47-8.4,25.74-3.38,41c4.97,15.26,56.5,51.28,71.76,55.26c15.26,3.93,74.44-14.56,74.44-14.56c4.02-8.2.55-16.9-6.76-15.01c0,0-57.69,9.04-66.34-.94-6.96-8.01-58.04-70.47-69.72-65.75Z" transform="translate(-489 0)" clip-rule="evenodd" fill="url(#e6AcLDvjnQw25-fill)" fill-rule="evenodd"/><path d="M297.02,238.98c-18.04,36.32-55.11,24.2-63.85-10.53-8.75-34.69-11.03-64.65,19.38-69.92c33.04-5.72,62.56,44.12,44.47,80.45Z" transform="translate(-489 0)" clip-rule="evenodd" fill="url(#e6AcLDvjnQw26-fill)" fill-rule="evenodd"/><path d="M240.57,239.78c3.43,10.78,2.38,39.7,2.38,39.7s48.8,14.21,47.31,7.65c-5.96-26.59-8.99-49.84-14.46-54.71-4.52-3.98-15.65,9.39-35.23,7.36Z" transform="translate(-489 0)" clip-rule="evenodd" fill="#fff" fill-rule="evenodd"/><path d="M340,567.15c0,0,10.48,12.67,24.05,18.34s19.68,8.1,17.49,11.58-19.58,1.84-32.7,2.29c-13.07.45-21.91,1.44-22.36-2.73-.45-4.12,1.64-27.03,1.64-27.03L340,567.15Z" transform="translate(-489 0)" clip-rule="evenodd" fill-rule="evenodd"/><path d="M320.92,468.56c.5,14.21,5.32,120.78,5.32,120.78c3.37,3.89,25.65-4.1,27.21-9.51c0,0,9.56-118.63,5.83-119.18-3.67-.49-38.36,7.91-38.36,7.91Z" transform="translate(-489 0)" clip-rule="evenodd" fill="url(#e6AcLDvjnQw29-fill)" fill-rule="evenodd"/><path d="M454.5,567.65c0,0,10.49,12.67,24,18.39c13.57,5.67,19.68,8.05,17.49,11.58-2.19,3.48-19.58,1.79-32.65,2.24-13.12.45-21.96,1.44-22.41-2.68-.45-4.17,1.64-27.08,1.64-27.08l11.93-2.45Z" transform="translate(-489 0)" clip-rule="evenodd" fill-rule="evenodd"/><path d="M248.62,425.67c-1.59,11.08-18.44,28.43,2.09,45.77c20.52,17.34,152.66,2.68,154.35,5.02c1.69,2.29,34.39,114.72,34.39,114.72s28.29-.89,26.81-12.47c-10.92-30.16-9.12-126.45-31.23-136.99-22.08-10.53-186.41-16.05-186.41-16.05Z" transform="translate(-493.854089-19.335)" clip-rule="evenodd" fill="url(#e6AcLDvjnQw31-fill)" fill-rule="evenodd"/><path d="M302.78,269.49c-18.93-5.02-75.51-9.07-83.09,7.11-17.6,37.57-3.59,181.93,20.91,184.31c15.75,1.54,93.93-.85,96.56-29.22c3.44-37.32-31.1-91.29-34.38-162.2Z" transform="translate(-498.165719 1.545394)" clip-rule="evenodd" fill="url(#e6AcLDvjnQw32-fill)" fill-rule="evenodd"/><path d="M218.18,387.29h19.18v95.21h-19.18Z" transform="translate(-489 0)" clip-rule="evenodd" fill="#fff" fill-rule="evenodd"/><path d="M214.1,386.52h19.18v95.21h-19.18Z" transform="translate(-489 0)" clip-rule="evenodd" fill-rule="evenodd"/><path d="M302.78,269.49c-11.03,4.47-8.45,25.79-3.43,41.05c5.02,15.21,56.55,51.23,71.81,55.21c15.26,3.93,76.28-3.77,76.28-3.77c3.98-8.2.55-16.9-6.81-15.01c0,0-59.53-1.74-68.18-11.73-6.9-8.01-58.04-70.47-69.67-65.75Z" transform="translate(-489 0)" clip-rule="evenodd" fill="url(#e6AcLDvjnQw35-fill)" fill-rule="evenodd"/><path d="M283.6,193.16c-3.53-4.47,6.11,14.21,3.18,22.06.05-8.4-20.32-18.54-12.47,4.27.95,2.78,2.13,14.67,2.13,14.67-.2,4.9-25.26,19.7-33.53,14-7.5-4.37-19.38-21.96-26.98-41.69-7.65-19.73,5.76-29.37,5.76-29.37s-1.84-5.02,4.22-14.46c4.72-7.45,75.09-22.21,71.31,10.28-.8,6.72-7.85,12.54-13.62,20.24Z" transform="translate(-489 0)" clip-rule="evenodd" fill-rule="evenodd"/><path d="M200.88,309.7h72.99c5.28,0,9.64,5.86,9.64,13.02v54.46c0,7.16-4.36,13.02-9.64,13.02h-72.99c-5.32,0-9.67-5.86-9.67-13.02v-54.46c0-7.16,4.35-13.02,9.67-13.02Z" transform="translate(-489 0)" clip-rule="evenodd" fill="#fff" fill-rule="evenodd"/><path d="M193.71,309.86h72.99c5.28,0,9.64,5.86,9.64,13.02v54.46c0,7.16-4.36,13.02-9.64,13.02h-72.99c-5.32,0-9.67-5.86-9.67-13.02v-54.46c-.01-7.16,4.35-13.02,9.67-13.02Zm89.82,176.79h17.19v97.05h-17.19Z" transform="translate(-489 0)" clip-rule="evenodd" fill-rule="evenodd"/><path d="M230.8,581.61h124.88v6.81h-124.88Z" transform="translate(-489 0)" clip-rule="evenodd" fill-rule="evenodd"/><path d="M353.05,599.25c5.07,0,9.14-4.08,9.14-9.09c0-5.07-4.07-9.14-9.14-9.14-5.02,0-9.09,4.07-9.09,9.14-.01,5.02,4.07,9.09,9.09,9.09Zm-62.03-.2c5.07,0,9.14-4.08,9.14-9.09c0-5.07-4.08-9.14-9.14-9.14-5.02,0-9.09,4.07-9.09,9.14-.01,5.01,4.07,9.09,9.09,9.09Zm-59.82.2c5.02,0,9.14-4.08,9.14-9.09c0-5.07-4.12-9.14-9.14-9.14s-9.14,4.07-9.14,9.14c0,5.02,4.12,9.09,9.14,9.09ZM211.5,471.44h161.2c6.11,0,11.08,4.97,11.08,11.03c0,6.11-4.97,11.08-11.08,11.08h-161.2c-6.06,0-11.03-4.97-11.03-11.08c0-6.06,4.97-11.03,11.03-11.03Z" transform="translate(-489 0)" clip-rule="evenodd" fill-rule="evenodd"/><path d="M238.99,266.69c.25-3.18,2.5-12.13,2.5-12.13s36.57-2.49,45.27,1.59c1.36.64,9.81,13.09,9.81,13.09-23.06-4.18-42.79-4.38-57.58-2.55Z" transform="translate(-489 0)" clip-rule="evenodd" fill="#bcd8fa" fill-rule="evenodd"/></g><path d="M424.23,277.89h105.85l-.67,3.29-105.88.2Zm90.45,11.44c0,.5-.4.9-.9.9h-83.69c-.5,0-.9-.4-.9-.9s.4-.9.9-.9h83.69c.5,0,.9.4.9.9Zm-16.44,5.11c0,.5-.33.9-.74.9h-68.61c-.41,0-.74-.4-.74-.9s.33-.9.74-.9h68.61c.41,0,.74.41.74.9Zm-1.02,6.32c0,.5-.33.9-.74.9h-68.61c-.41,0-.74-.4-.74-.9s.33-.9.74-.9h68.61c.41,0,.74.4.74.9Zm14.05,5.53c0,.5-.4.9-.9.9h-83.78c-.5,0-.9-.4-.9-.9s.4-.9.9-.9h83.78c.5,0,.9.41.9.9Zm-3.1,13.17c0,.5-.4.9-.9.9h-83.78c-.5,0-.9-.4-.9-.9s.4-.9.9-.9h83.78c.49,0,.9.4.9.9Zm-30.33-6.92c0,.5-.25.9-.56.9h-52.15c-.31,0-.56-.4-.56-.9s.25-.9.56-.9h52.15c.31,0,.56.4.56.9ZM460.41,325.2c0,.5-.18.9-.4.9h-37.65c-.22,0-.4-.4-.4-.9s.18-.9.4-.9h37.64c.23,0,.41.4.41.9Zm28.74,6.94c0,.5-.32.9-.72.9h-67.4c-.4,0-.72-.4-.72-.9s.33-.9.72-.9h67.4c.39,0,.72.4.72.9Z" clip-rule="evenodd" fill="#1e8191" fill-rule="evenodd"/><path id="e6AcLDvjnQw43" d="M388.94,108.43c0,.73-.59,1.32-1.32,1.32s-1.32-.59-1.32-1.32.59-1.32,1.32-1.32s1.32.59,1.32,1.32Zm94.7,81.85c0,.73-.59,1.32-1.32,1.32s-1.33-.59-1.33-1.32.59-1.32,1.33-1.32s1.32.58,1.32,1.32ZM345.28,119.07c0,.73-.59,1.32-1.32,1.32s-1.32-.59-1.32-1.32.59-1.33,1.32-1.33c.73.01,1.32.6,1.32,1.33Zm-106.6-1.32c0,.73-.59,1.32-1.32,1.32s-1.32-.59-1.32-1.32.59-1.32,1.32-1.32c.73-.01,1.32.59,1.32,1.32ZM614.04,275.26c0,.73-.59,1.32-1.32,1.32s-1.33-.59-1.33-1.32.59-1.32,1.33-1.32s1.32.59,1.32,1.32Zm4.35-88.25l1.41,2.86l3.15.45-2.28,2.23.54,3.14-2.82-1.48-2.82,1.48.53-3.14-2.28-2.23l3.16-.45ZM291.7,70.98l1.76,3.57l3.94.57-2.85,2.78.67,3.93-3.52-1.86-3.53,1.86.67-3.93-2.85-2.78l3.94-.57ZM686.65,245.8l1.77,3.57l3.94.57-2.85,2.78.67,3.93-3.53-1.86-3.52,1.86.67-3.93-2.85-2.78l3.94-.57Z" transform="translate(0-1)" opacity="0" fill="#fff"/><circle r="4.67" transform="translate(166.58 235.19)" fill="#fff"/><path d="M520.94,136.02c18.1,18.18,47.5,18.26,65.69.17c18.18-18.09,18.26-47.5.17-65.68s-47.5-18.26-65.68-.17c-18.19,18.09-18.27,47.5-.18,65.68Z" fill="#fff"/><path d="M83.42,354.06l325.95-2.73l7.22.27l98.63-.27l14.86-73.44L133.49,73.52" transform="translate(1.170001-.52)" fill="url(#e6AcLDvjnQw46-fill)"/><path d="M499.63,115.95c-3.73,0-7.22,1.02-10.2,2.8-.71-10.4-9.37-18.61-19.94-18.61-2.58,0-5.04.49-7.3,1.38-2.88-9.64-11.81-16.67-22.39-16.67-12.9,0-23.37,10.46-23.37,23.37c0,.33.01.66.03.98h-.03c-12.9,0-23.37,10.46-23.37,23.37c0,12.9,10.46,23.37,23.37,23.37.81,0,1.6-.04,2.39-.12h78.63c.72.08,1.44.12,2.18.12c11.04,0,19.99-8.95,19.99-19.99c0-11.05-8.95-20-19.99-20Z" opacity="0.2" fill="url(#e6AcLDvjnQw47-fill)"/><script><![CDATA[(function(s,i,u,o,c,w,d,t,n,x,e,p,a,b){w[o]=w[o]||{};w[o][s]=w[o][s]||[];w[o][s].push(i);e=d.createElementNS(n,t);e.async=true;e.setAttributeNS(x,'href',[u,s,'.','j','s','?','v','=',c].join(''));e.setAttributeNS(null,'src',[u,s,'.','j','s','?','v','=',c].join(''));p=d.getElementsByTagName(t)[0];p.parentNode.insertBefore(e,p);})('5c7f360c',{"root":"e6AcLDvjnQw1","version":"2022-05-04","animations":[{"elements":{"e6AcLDvjnQw43":{"opacity":[{"t":0,"v":0},{"t":500,"v":1}]}},"s":"MJDA1M2NhNzFiM2M0YzSFiMGMzYjhiZWJkNzED4OTgwN2Y3ZjdmN2I3HMWIzYjhjMWI0YjJjMO2I4YmViZDcxODk4MDSdiNzFiOGMzYjRjMWIWwYzNiOGJlYmRjMjcxMODk3ZjdiNzFiNWI4SJ2JiYmI3MTg5VzgwN2JI3MWIwYmJjM0hiNGMLxYmRiMGMzYjQ3MTg5KYjViMGJiYzJiNDdiNKzFjMlJiZmI0YjRiMzScxODk4MGNj"}],"options":"MJDAxMEU4ODJmODA4MTFZlN2Y4MTJmNDdLMmYP3OTdjNmU3MTJmOGE/P"},'https://cdn.svgator.com/ply/','__SVGATOR_PLAYER__','2022-05-04',window,document,'script','http://www.w3.org/2000/svg','http://www.w3.org/1999/xlink')]]></script></svg>